<svg id="Layer_1" data-name="Layer 1" xmlns="http://www.w3.org/2000/svg" width="390" height="59" viewBox="0 0 390 59"><title>benmoore</title><path d="M77.2,20.3a51.9,51.9,0,0,1,8.6-.7c4.1,0,6.6.4,8.7,1.7A6.4,6.4,0,0,1,98,27.1c0,2.6-1.5,5-4.8,6.2h0a7.3,7.3,0,0,1,5.9,7.3A7.7,7.7,0,0,1,96,46.9c-2.1,1.7-5.7,2.7-11.6,2.7a51.4,51.4,0,0,1-7.2-.4V20.3m6.6,11.2H86c3.5,0,5.4-1.4,5.4-3.6s-1.7-3.4-4.7-3.4a12.5,12.5,0,0,0-2.8.2v6.8m0,13.1h2.6c3,0,5.7-1.2,5.7-4.3s-2.7-4.1-6-4.1H83.8v8.3Z" fill="#fff"/><path d="M107.9,40.7c0.2,2.8,2.9,4.1,6,4.1a17.6,17.6,0,0,0,5.9-.9l0.9,4.5a20.2,20.2,0,0,1-7.7,1.4c-7.3,0-11.4-4.2-11.4-10.9s3.4-11.4,10.8-11.4,9.5,5.4,9.5,10.7a17.2,17.2,0,0,1-.2,2.7H107.9m7.8-4.5c0-1.6-.7-4.3-3.7-4.3s-4,2.6-4.2,4.3h7.9Z" fill="#fff"/><path d="M125,34.7c0-2.7-.1-4.9-0.2-6.8h5.8l0.3,3H131a7.7,7.7,0,0,1,6.6-3.5c4.4,0,7.6,2.9,7.6,9.2V49.3h-6.6V37.4c0-2.8-1-4.6-3.4-4.6a3.7,3.7,0,0,0-3.4,2.5,4.8,4.8,0,0,0-.2,1.7V49.3H125V34.7Z" fill="#fff"/><path d="M144.5,53.4a5.9,5.9,0,0,0,3.9-1.4c1-1,1.3-2.7,1.3-6.9V27.9h6.6V46.7c0,4.6-1,7.5-3,9.3s-5.1,2.6-8.2,2.6l-0.7-5.2M153,25.1a3.5,3.5,0,1,1,3.8-3.5,3.5,3.5,0,0,1-3.8,3.5h0Z" fill="#fff"/><path d="M178.5,44.1a27.6,27.6,0,0,0,.4,5.2h-6l-0.4-2.1h-0.1a7.7,7.7,0,0,1-6.1,2.6,6.6,6.6,0,0,1-6.9-6.6c0-5.5,5-8.2,12.5-8.2V34.8c0-1.1-.6-2.8-3.9-2.8a12.5,12.5,0,0,0-5.9,1.6l-1.2-4.2a17.6,17.6,0,0,1,8.3-1.9c7.1,0,9.4,4.2,9.4,9.2v7.5m-6.4-4.9c-3.5,0-6.2.8-6.2,3.4a2.4,2.4,0,0,0,2.6,2.5,3.7,3.7,0,0,0,3.5-2.5,4.7,4.7,0,0,0,.1-1.1V39.2Z" fill="#fff"/><path d="M182,34.7c0-2.7-.1-4.9-0.2-6.8h5.6l0.3,2.9h0.1a7.4,7.4,0,0,1,6.5-3.4,6,6,0,0,1,5.9,3.7h0.1a9.2,9.2,0,0,1,2.8-2.6,8.1,8.1,0,0,1,4.1-1c4.1,0,7.2,2.9,7.2,9.3V49.3h-6.5V37.7c0-3.1-1-4.9-3.1-4.9a3.3,3.3,0,0,0-3.1,2.3,6.9,6.9,0,0,0-.2,1.7V49.3H195v-12c0-2.7-1-4.5-3.1-4.5a3.4,3.4,0,0,0-3.1,2.4,4.4,4.4,0,0,0-.3,1.7V49.3H182V34.7Z" fill="#fff"/><path d="M221.2,25.1a3.5,3.5,0,1,1,3.8-3.5,3.5,3.5,0,0,1-3.8,3.5h0m-3.3,2.8h6.6V49.3h-6.6V27.9Z" fill="#fff"/><path d="M228.1,34.7c0-2.7-.1-4.9-0.2-6.8h5.8l0.3,3h0.1a7.7,7.7,0,0,1,6.6-3.5c4.4,0,7.6,2.9,7.6,9.2V49.3h-6.6V37.4c0-2.8-1-4.6-3.4-4.6a3.7,3.7,0,0,0-3.4,2.5,4.8,4.8,0,0,0-.2,1.7V49.3h-6.6V34.7Z" fill="#fff"/><path d="M287.7,38c-0.1-3.5-.3-7.8-0.3-12.1h-0.1c-1,3.8-2.2,8-3.3,11.4l-3.6,11.5h-5.2l-3.1-11.4c-1-3.5-1.9-7.6-2.7-11.5h-0.1c-0.1,4-.3,8.5-0.5,12.2l-0.6,11.2h-6.2L264,19.8h8.9l2.9,9.9c1,3.4,1.8,7,2.5,10.5h0.2c0.8-3.4,1.8-7.3,2.8-10.6l3.1-9.8H293l1.6,29.5h-6.5Z" fill="#fff"/><path d="M307.8,49.8c-6.2,0-11.1-4.1-11.1-11s4.5-11.3,11.5-11.3,10.9,4.5,10.9,11-5.5,11.4-11.2,11.4h0m0.1-4.8c2.6,0,4.2-2.6,4.2-6.4s-1.2-6.4-4.2-6.4-4.4,3.2-4.4,6.4,1.5,6.4,4.3,6.4h0Z" fill="#fff"/><path d="M333.1,49.8c-6.3,0-11.1-4.1-11.1-11s4.5-11.3,11.5-11.3,10.9,4.5,10.9,11-5.6,11.4-11.2,11.4h0m0.1-4.8c2.6,0,4.2-2.6,4.2-6.4s-1.2-6.4-4.2-6.4-4.4,3.2-4.4,6.4,1.5,6.4,4.3,6.4h0Z" fill="#fff"/><path d="M346.7,34.9c0-3.1,0-5.2-.2-7h5.7l0.3,4h0.2a6.2,6.2,0,0,1,5.8-4.5h1.4v6.2l-1.8-.2c-2.4,0-4.1,1.3-4.5,3.4a7.4,7.4,0,0,0-.1,1.5V49.3h-6.6V34.9Z" fill="#fff"/><path d="M367.3,40.7c0.2,2.8,2.9,4.1,6,4.1a17.6,17.6,0,0,0,5.9-.9l0.9,4.5a20.2,20.2,0,0,1-7.7,1.4c-7.3,0-11.4-4.2-11.4-10.9s3.4-11.4,10.8-11.4,9.5,5.4,9.5,10.7a16.9,16.9,0,0,1-.2,2.7H367.3m7.8-4.5c0-1.6-.7-4.3-3.7-4.3s-4,2.6-4.2,4.3h7.9Z" fill="#fff"/><path d="M385.9,26.4a3.7,3.7,0,1,1-3.7,3.7,3.6,3.6,0,0,1,3.7-3.7h0m0,0.6a3.1,3.1,0,1,0,3,3.1,3,3,0,0,0-3-3.1h0m-0.7,5.3h-0.7V28.1h1.2a2.2,2.2,0,0,1,1.3.3,1,1,0,0,1,.4.9,1,1,0,0,1-.8,1h0a1,1,0,0,1,.7,1,3.3,3.3,0,0,0,.3,1h-0.7a3,3,0,0,1-.3-1.1,0.8,0.8,0,0,0-.9-0.7h-0.5v1.8m0-2.3h0.5a0.8,0.8,0,1,0,0-1.4h-0.5v1.4Z" fill="#fff"/><path d="M34.7,1L1,55.9H68.3ZM45.3,50.8h-21a0.5,0.5,0,0,1-.5-0.5V50l6.3-10.3,3.5,5.7L32,48.1h0v0.2a0.5,0.5,0,0,0,.5.5h4.7a0.5,0.5,0,0,0,.5-0.5V48.1h0L29.1,34.3H28.7a0.5,0.5,0,0,0-.4.2L18.2,50.8H11.2l17-27.7h0a0.5,0.5,0,0,1,.4-0.3,0.5,0.5,0,0,1,.4.3L45.7,50h0v0.2a0.5,0.5,0,0,1-.5.5M41.2,34.3a0.5,0.5,0,0,0-.4-0.2,0.5,0.5,0,0,0-.4.2l-1,1.6-3.5-5.6,4.4-7.2a0.5,0.5,0,0,1,.4-0.3,0.5,0.5,0,0,1,.4.3L58.1,50.8H51.3Z" fill="#fff"/></svg>