<svg id="Layer_1" data-name="Layer 1" xmlns="http://www.w3.org/2000/svg" width="20" height="20" viewBox="0 0 20 20">
<style type="text/css">
	.st0{fill:#FFFFFF !important;}
	.st1{display:none;}	
</style>
<g class="svg-cursor">
	<path class="st0" d="M15.7,7.5h0l3-3.2a2.4,2.4,0,0,0,.1-3l-0.9-.9a2.3,2.3,0,0,0-3,.5l-3,3.2h0a0.9,0.9,0,0,0-1.1,0,0.9,0.9,0,0,0,0,1.1h0L2.9,14A4.1,4.1,0,0,0,2,16L1.7,17l-0.4.5c-0.4.6-.9,1.4-0.2,2l0.2,0.2a1.4,1.4,0,0,0,1.6-.4l0.6-.5,0.8-.2a5.3,5.3,0,0,0,2.1-1.2l7.9-8.7h0.1a0.7,0.7,0,0,0,1.1,0A1,1,0,0,0,15.7,7.5Z"/>
    <path d="M15.7,7.5h0l3-3.2a2.4,2.4,0,0,0,.1-3l-0.9-.9a2.3,2.3,0,0,0-3,.5l-3,3.2h0a0.9,0.9,0,0,0-1.1,0,0.9,0.9,0,0,0,0,1.1h0L2.9,14A4.1,4.1,0,0,0,2,16L1.7,17l-0.4.5c-0.4.6-.9,1.4-0.2,2l0.2,0.2a1.4,1.4,0,0,0,1.6-.4l0.6-.5,0.8-.2a5.3,5.3,0,0,0,2.1-1.2l7.9-8.7h0.1a0.7,0.7,0,0,0,1.1,0A1,1,0,0,0,15.7,7.5ZM5.9,16.8a3.6,3.6,0,0,1-1.8,1l-0.9.4-0.9.6-0.5.4-0.3-.2L2,18.2l0.5-.5,0.4-1.2a3.9,3.9,0,0,1,.8-1.6L11.5,6l2.2,2Z"/>
    <path class="partial" d="M5.9,16.8a3.6,3.6,0,0,1-1.8,1l-0.9.4-0.9.6-0.5.4-0.3-.2L2,18.2l0.5-.5,0.4-1.2a3.9,3.9,0,0,1,.8-1.6l1.8-2h4Z"/>
    <path class="full" d="M5.9,16.8a3.6,3.6,0,0,1-1.8,1l-0.9.4-0.9.6-0.5.4-0.3-.2L2,18.2l0.5-.5,0.4-1.2a3.9,3.9,0,0,1,.8-1.6l5-5.5h4Z"/>
</g>
</svg>
