<svg id="Layer_1" data-name="Layer 1" xmlns="http://www.w3.org/2000/svg" width="164" height="25" viewBox="0 0 164 25"><title>live-with-it</title><path d="M4.4,3.9a5.9,5.9,0,0,1,.1-1.6L5,2.1H5.9A0.6,0.6,0,0,0,6,1.7a0.5,0.5,0,0,0-.1-0.3H1.1a0.5,0.5,0,0,0-.1.3,0.6,0.6,0,0,0,.1.3H1.9L2.5,2.3a7,7,0,0,1,.1,1.6v9a7,7,0,0,1-.1,1.6l-0.6.2H1.1A0.6,0.6,0,0,0,1,15a0.5,0.5,0,0,0,.1.3h9.4l0.2-.8,0.3-.8,0.3-1,0.3-.9H10.8A3.8,3.8,0,0,1,9.5,14l-1.1.4H4.9l-0.5-.2a4.2,4.2,0,0,1-.1-1.5v-9Z" /><path d="M13.7,1.4a0.5,0.5,0,0,0-.1.3,0.6,0.6,0,0,0,.1.3h0.8l0.6,0.2a7,7,0,0,1,.1,1.6v9a7,7,0,0,1-.1,1.6l-0.6.2H13.7a0.6,0.6,0,0,0-.1.3,0.5,0.5,0,0,0,.1.3h4.8a0.5,0.5,0,0,0,.1-0.3,0.6,0.6,0,0,0-.1-0.3H17.7l-0.6-.2a7,7,0,0,1-.1-1.6v-9a7,7,0,0,1,.1-1.6l0.6-.2h0.8a0.6,0.6,0,0,0,.1-0.3,0.5,0.5,0,0,0-.1-0.3H13.7Z" /><path d="M21.9,1.5H20.3a0.8,0.8,0,0,0,0,.3,0.5,0.5,0,0,0,0,.3H21l0.6,0.4a11,11,0,0,1,.9,2l2.2,5.9L26.5,15h0.1v0.2h0.1a0.9,0.9,0,0,0,.8-0.7l4-9.9a8.7,8.7,0,0,1,1-2.1l0.7-.4h0.7a0.3,0.3,0,0,0,.1-0.3,0.8,0.8,0,0,0,0-.3H29.7a0.5,0.5,0,0,0-.1.3,0.3,0.3,0,0,0,.1.3h0.8l0.4,0.3a0.6,0.6,0,0,1,.2.4,4.6,4.6,0,0,1-.4,1.5L29.3,7.7,28,11.1l-0.6,1.5L24.3,4.1A4.9,4.9,0,0,1,24,2.7a0.5,0.5,0,0,1,.2-0.4l0.4-.2h0.7a0.3,0.3,0,0,0,.1-0.3,1.2,1.2,0,0,0,0-.3H21.9Z" /><path d="M35.5,1.4a0.5,0.5,0,0,0-.1.3,0.6,0.6,0,0,0,.1.3h0.8l0.6,0.2A7,7,0,0,1,37,3.9v9a7,7,0,0,1-.1,1.6l-0.6.2H35.5a0.6,0.6,0,0,0-.1.3,0.5,0.5,0,0,0,.1.3h9.4l0.2-.8,0.3-.8,0.3-1,0.3-.9H45.2l-0.6,1.4a2,2,0,0,1-.7.8l-1.1.4-1.5.2h-2l-0.5-.2a1.1,1.1,0,0,1-.1-0.6q0-.5,0-0.9v-4h1.5l2.2,0.2,0.3,0.3L43,10.3l0.3,0.2h0.3v-4H43V7.1l-0.2.4-0.2.2H38.8V3.9a5.6,5.6,0,0,1,.1-1.5,2,2,0,0,1,1.4-.2h1.8a2.5,2.5,0,0,1,1.5.4,2.8,2.8,0,0,1,.9,1.6h0.7L44.8,2.9q-0.2-1-.3-1.6h-9Z" /><path d="M51.8,4.9a0.5,0.5,0,0,0,0,.2,0.3,0.3,0,0,0,0,.2h0.4l0.3,0.2h0.3V6.5l0.9,2.9,1,3.4h0.4l0.2-.3,0.9-2.9,0.9-2.9V7.2l0.4,1.2,0.5,1.5,0.5,1.6,0.4,1.3h0.4l0.2-.3,0.9-3.2,0.8-2.9a2.1,2.1,0,0,1,.4-0.9l0.4-.2h0.4V5.1a0.5,0.5,0,0,0,0-.2H60.2V5.3h0.7V5.7a4.1,4.1,0,0,1-.1.9L60.5,8,60.1,9.6l-0.4,1.5L57.8,5.1V4.9H57.4l-0.2.3L56.4,8l-1,3.2L54.7,8.7,54,6.5l-0.2-.8V5.5h0.6V5.1a0.7,0.7,0,0,0,0-.2H51.8Z" /><path d="M63.8,4.9V5.3h0.8a4.1,4.1,0,0,1,.1.9v5.2a4.1,4.1,0,0,1-.1.9H63.8V13h2.8V12.7H65.8a4.1,4.1,0,0,1-.1-0.9V6.4a4.1,4.1,0,0,1,.1-0.9h0.8V4.9H63.8Z" /><path d="M69.1,4.9H68.2Q68,6,67.9,6.8h0.4a2.7,2.7,0,0,1,.4-1.1,0.9,0.9,0,0,1,.7-0.4h1.5v6.2a4.1,4.1,0,0,1-.1.9H70.1V13h2.8V12.7H72a4.1,4.1,0,0,1-.1-0.9V5.4h1.5a0.9,0.9,0,0,1,.7.4,2.7,2.7,0,0,1,.4,1.1H75Q74.9,6,74.7,4.7H69.1Z" /><path d="M76.4,4.9a0.3,0.3,0,0,0,0,.2V5.3h0.8a4.1,4.1,0,0,1,.1.9v5.1a4.1,4.1,0,0,1-.1.9H76.4v0.2a0.3,0.3,0,0,0,0,.2h2.8a0.3,0.3,0,0,0,0-.2V12.7H78.3a4.1,4.1,0,0,1-.1-0.9V9.1H82v2.4a4.1,4.1,0,0,1-.1.9H81.2v0.2a0.3,0.3,0,0,0,0,.2H84a0.3,0.3,0,0,0,0-.2V12.7H83.1a4.1,4.1,0,0,1-.1-0.9V6.4a4.1,4.1,0,0,1,.1-0.9H84V5.1a0.3,0.3,0,0,0,0-.2H81.2a0.3,0.3,0,0,0,0,.2V5.3H82a4.1,4.1,0,0,1,.1.9V8.5H78.3V6.4a4.1,4.1,0,0,1,.1-0.9h0.8V5.1a0.3,0.3,0,0,0,0-.2H76.4Z" /><path d="M89.9,4.9V5.3h0.8a4.1,4.1,0,0,1,.1.9v5.2a4.1,4.1,0,0,1-.1.9H89.9V13h2.8V12.7H91.8a4.1,4.1,0,0,1-.1-0.9V6.4a4.1,4.1,0,0,1,.1-0.9h0.8V4.9H89.9Z" /><path d="M95.2,4.9H94.2Q94.1,6,93.9,6.8h0.4a2.7,2.7,0,0,1,.4-1.1,0.9,0.9,0,0,1,.7-0.4H97v6.2a4.1,4.1,0,0,1-.1.9H96.1V13h2.8V12.7H98.1a4.1,4.1,0,0,1-.1-0.9V5.4h1.5a0.9,0.9,0,0,1,.7.4,2.7,2.7,0,0,1,.4,1.1h0.4Q101,6,100.8,4.7H95.2Z" /><path d="M107,1.4a0.5,0.5,0,0,0-.1.3,0.6,0.6,0,0,0,.1.3h0.8l0.6,0.2a7,7,0,0,1,.1,1.6v9a7,7,0,0,1-.1,1.6l-0.6.2H107a0.6,0.6,0,0,0-.1.3,0.5,0.5,0,0,0,.1.3h5a0.5,0.5,0,0,0,.1-0.3,0.6,0.6,0,0,0-.1-0.3h-1l-0.7-.2a7,7,0,0,1-.1-1.6V8.9q0-.2,1.5-0.2L114,8.9l0.3,0.3,0.3,1.1,0.3,0.2h0.3v-4h-0.7V7.1l-0.2.4-0.2.2h-3.7V3.9a6.5,6.5,0,0,1,.1-1.5,2,2,0,0,1,1.4-.2h1.8a2.5,2.5,0,0,1,1.5.4,2.8,2.8,0,0,1,.9,1.6h0.7l-0.3-1.2q-0.2-1-.3-1.6h-9Z" /><path d="M119,1.4a0.5,0.5,0,0,0-.1.3,0.6,0.6,0,0,0,.1.3h0.8l0.6,0.2a7,7,0,0,1,.1,1.6v9a7,7,0,0,1-.1,1.6l-0.6.2H119a0.6,0.6,0,0,0-.1.3,0.5,0.5,0,0,0,.1.3h4.8a0.5,0.5,0,0,0,.1-0.3,0.6,0.6,0,0,0-.1-0.3H123l-0.6-.2a7,7,0,0,1-.1-1.6v-9a7,7,0,0,1,.1-1.6l0.6-.2h0.8a0.6,0.6,0,0,0,.1-0.3,0.5,0.5,0,0,0-.1-0.3H119Z" /><path d="M130.4,1.5h-3.7a0.5,0.5,0,0,0-.1.3,0.6,0.6,0,0,0,.1.3h0.8l0.6,0.2a7,7,0,0,1,.1,1.6v9a8.4,8.4,0,0,1-.1,1.6l-0.6.2h-0.8a0.6,0.6,0,0,0-.1.3,0.5,0.5,0,0,0,.1.3h4.8a0.5,0.5,0,0,0,.1-0.3,0.6,0.6,0,0,0-.1-0.3h-0.8l-0.6-.2a7,7,0,0,1-.1-1.6V8.9h1.1a0.7,0.7,0,0,1,.6.3l1.9,3,1.3,2,0.3,0.4,1,0.6a9.5,9.5,0,0,0,2.7.3V15a0.6,0.6,0,0,0,0-.3,3.3,3.3,0,0,1-1.3-.4,3.2,3.2,0,0,1-1-.9,55,55,0,0,1-3.3-4.9,4.5,4.5,0,0,0,1.9-1.4,3.2,3.2,0,0,0,.9-2.1,3.2,3.2,0,0,0-.4-1.6,3.3,3.3,0,0,0-1-1.1l-1.3-.7-1.4-.2h-1.6Zm2.9,6a3.3,3.3,0,0,1-2.2.8H130V3.9a6.4,6.4,0,0,1,.1-1.6,1.3,1.3,0,0,1,1-.2,3.1,3.1,0,0,1,2.4.8,3.3,3.3,0,0,1,.8,2.3A2.8,2.8,0,0,1,133.4,7.4Z" /><path d="M143,1.7A3.8,3.8,0,0,0,141.5,3a3.4,3.4,0,0,0-.6,1.9,2.8,2.8,0,0,0,.1.7l0.2,0.6,0.3,0.6,0.4,0.5,0.5,0.5,0.5,0.4,0.6,0.4,0.5,0.3,0.5,0.3L145,9.5l0.5,0.3L146,10l0.4,0.3,0.3,0.3,0.3,0.4,0.2,0.5a2.8,2.8,0,0,1,.1.6,2.5,2.5,0,0,1-.7,1.9,2.4,2.4,0,0,1-1.8.7l-1.3-.3-0.9-.6-0.6-.8-0.4-.8-0.2-.6a0.2,0.2,0,0,0-.2-0.2l-0.5.3q0,0.3.1,1.3t0.3,1.9l0.8,0.2,0.9,0.2h2l1.6-.3a4.6,4.6,0,0,0,1.4-.8,3.6,3.6,0,0,0,1-1.2,3.5,3.5,0,0,0,.4-1.6,2.7,2.7,0,0,0-.1-0.7l-0.3-.6-0.4-.6-0.5-.5-0.6-.5-0.6-.4L146,7.9l-0.5-.3-0.5-.3-0.5-.3-0.5-.3-0.5-.4-0.4-.4-0.3-.4-0.2-.5a2.4,2.4,0,0,1-.1-0.6,2.7,2.7,0,0,1,.1-0.8l0.4-.7a1.7,1.7,0,0,1,.7-0.6l1.1-.2,1,0.2,0.8,0.5,0.6,0.7,0.4,0.8a3.6,3.6,0,0,1,.2.7h0.5V4.8q-0.2-2.1-.3-3l-0.9-.2-0.7-.2h-1.5A4.3,4.3,0,0,0,143,1.7Z" /><path d="M153.3,1.4h-0.6l-0.6-.2h-0.5q-0.2,2.2-.5,3.6h0.7a4.7,4.7,0,0,1,.7-1.9,1.5,1.5,0,0,1,1.2-.7h2.6V12.8a7,7,0,0,1-.1,1.6l-0.6.2h-0.8a0.6,0.6,0,0,0-.1.3,0.5,0.5,0,0,0,.1.3h4.8a0.5,0.5,0,0,0,.1-0.3,0.6,0.6,0,0,0-.1-0.3h-0.8l-0.6-.2a7,7,0,0,1-.1-1.6V2.1h2.6a1.5,1.5,0,0,1,1.2.7,4.7,4.7,0,0,1,.7,1.9h0.7Q163.2,3.2,163,1h-0.4l-0.6.2h-8.7Z" /><path d="M1.3,24.2V23.8H162.8v0.4H1.3Z"  fill-rule="evenodd"/></svg>
